<?xml version="1.0" standalone="no"?>
<!DOCTYPE svg PUBLIC "-//W3C//DTD SVG 20010904//EN"
 "http://www.w3.org/TR/2001/REC-SVG-20010904/DTD/svg10.dtd">
<svg version="1.0" xmlns="http://www.w3.org/2000/svg"
 width="500.000000pt" height="500.000000pt" viewBox="0 0 500.000000 500.000000"
 preserveAspectRatio="xMidYMid meet">

<g transform="translate(0.000000,500.000000) scale(0.100000,-0.100000)"
fill="#000000" stroke="none">
<path d="M2310 4990 c-597 -49 -1155 -306 -1575 -725 -316 -315 -536 -698
-650 -1126 -59 -224 -79 -381 -78 -624 0 -137 6 -253 17 -335 88 -656 412
-1228 931 -1642 255 -203 644 -392 960 -466 371 -87 792 -88 1160 -2 306 71
625 218 894 413 110 79 155 118 284 245 389 383 640 878 717 1414 43 299 26
646 -46 946 -212 874 -878 1565 -1750 1816 -245 70 -610 107 -864 86z m454
-505 c559 -73 1082 -398 1394 -865 243 -364 355 -762 339 -1204 -8 -236 -49
-431 -134 -646 -268 -679 -882 -1160 -1602 -1255 -140 -19 -381 -19 -528 0
-811 107 -1484 712 -1679 1510 -54 221 -71 548 -39 760 64 429 261 822 565
1125 312 312 719 516 1147 575 136 18 397 18 537 0z"/>
<path d="M1662 3625 c-311 -68 -423 -462 -196 -689 82 -83 183 -120 307 -114
139 7 242 64 318 174 86 126 92 306 15 439 -59 100 -171 175 -292 195 -71 12
-73 12 -152 -5z"/>
<path d="M3177 3630 c-56 -10 -161 -59 -199 -93 -96 -88 -143 -207 -136 -338
17 -293 329 -467 598 -333 148 73 238 254 211 424 -14 84 -54 163 -117 226
-61 62 -114 91 -203 110 -73 15 -84 15 -154 4z"/>
<path d="M1664 2175 c-85 -18 -139 -49 -200 -111 -159 -163 -159 -418 2 -578
215 -215 593 -118 678 173 70 239 -83 481 -330 521 -71 12 -73 12 -150 -5z"/>
<path d="M3177 2180 c-112 -20 -226 -99 -283 -195 -126 -216 -26 -503 207
-589 153 -57 322 -22 433 90 95 94 136 222 115 354 -35 226 -249 379 -472 340z"/>
</g>
</svg>
